<svg width="296" height="246" viewBox="0 0 296 246" fill="none" xmlns="http://www.w3.org/2000/svg">
<path d="M139.031 246C203.593 246 255.931 243.34 255.931 240.058C255.931 236.777 203.593 234.116 139.031 234.116C74.4687 234.116 22.1309 236.777 22.1309 240.058C22.1309 243.34 74.4687 246 139.031 246Z" fill="#BDBDBD"/>
<path d="M207.333 57.0926H206.005V20.93C206.005 15.379 203.786 10.0554 199.837 6.13026C195.889 2.20513 190.533 6.12868e-06 184.949 0H107.872C102.288 -1.05062e-05 96.9323 2.20509 92.9836 6.13021C89.0348 10.0553 86.8164 15.3789 86.8164 20.9299V219.321C86.8164 224.872 89.0348 230.196 92.9835 234.121C96.9323 238.046 102.288 240.251 107.872 240.251H184.949C190.533 240.251 195.889 238.046 199.837 234.121C203.786 230.196 206.005 224.872 206.005 219.321V82.8338H207.333L207.333 57.0926Z" fill="#3F3D56"/>
<path d="M201.521 21.0753V219.174C201.521 223.32 199.864 227.296 196.915 230.227C193.966 233.158 189.967 234.805 185.796 234.805H108.35C104.18 234.805 100.18 233.158 97.2308 230.227C94.2818 227.296 92.6251 223.32 92.625 219.174V21.0753C92.6251 16.9297 94.2818 12.954 97.2308 10.0226C100.18 7.09127 104.18 5.44441 108.35 5.44434H117.745C117.284 6.572 117.108 7.79516 117.233 9.00621C117.359 10.2173 117.782 11.3791 118.465 12.3895C119.148 13.4 120.071 14.228 121.152 14.8008C122.232 15.3737 123.438 15.6737 124.663 15.6746H168.819C170.044 15.6737 171.25 15.3736 172.33 14.8008C173.411 14.228 174.334 13.3999 175.017 12.3895C175.7 11.3791 176.123 10.2173 176.249 9.0062C176.374 7.79515 176.198 6.572 175.737 5.44434H185.796C189.967 5.44441 193.966 7.09127 196.915 10.0226C199.864 12.954 201.521 16.9297 201.521 21.0753V21.0753Z" fill="#222227"/>
<path d="M176.572 106.494C176.057 106.762 175.533 107.015 175.001 107.254C174.516 107.471 174.023 107.676 173.523 107.868C173.34 107.937 173.154 108.006 172.968 108.076C171.498 108.606 169.988 109.02 168.452 109.314C167.691 109.462 166.921 109.579 166.14 109.663C165.496 109.736 164.845 109.788 164.187 109.819C163.719 109.842 163.251 109.852 162.779 109.852C160.912 109.852 159.048 109.679 157.213 109.333C156.735 109.247 156.267 109.145 155.798 109.033C153.533 108.493 151.341 107.689 149.266 106.636C149.08 106.544 148.894 106.445 148.708 106.349C148.432 106.204 148.164 106.052 147.895 105.894C148.024 105.715 148.164 105.54 148.306 105.369C149.86 103.454 151.803 101.887 154.007 100.769C156.211 99.6507 158.627 99.0068 161.099 98.8791C163.57 98.7514 166.041 99.1428 168.35 100.028C170.658 100.913 172.754 102.271 174.499 104.015C175.105 104.619 175.666 105.266 176.18 105.95C176.316 106.128 176.445 106.309 176.572 106.494Z" fill="#5865F2"/>
<path d="M163.44 91.9945C171.494 91.9945 178.022 85.5047 178.022 77.4992C178.022 69.4937 171.494 63.0039 163.44 63.0039C155.386 63.0039 148.857 69.4937 148.857 77.4992C148.857 85.5047 155.386 91.9945 163.44 91.9945Z" fill="#2F2E41"/>
<path d="M167.322 92.0139C172.582 89.1559 174.514 82.6008 171.639 77.3727C168.764 72.1445 162.17 70.2231 156.91 73.0811C151.65 75.939 149.717 82.4941 152.593 87.7222C155.468 92.9504 162.062 94.8718 167.322 92.0139Z" fill="#E6DFE0"/>
<path d="M173.518 75.7625C171.038 77.4617 168.095 78.366 165.082 78.354C166.157 79.0946 167.38 79.5948 168.668 79.8203C164.663 80.6742 160.524 80.6973 156.51 79.8882C155.617 79.7459 154.756 79.452 153.964 79.0192C153.57 78.8002 153.226 78.501 152.955 78.1412C152.685 77.7813 152.493 77.3689 152.393 76.9307C152.127 75.416 153.314 74.0397 154.548 73.1123C156.437 71.7139 158.616 70.7505 160.926 70.2916C163.236 69.8328 165.619 69.8901 167.904 70.4593C169.396 70.8427 170.891 71.4904 171.86 72.6813C172.829 73.8723 173.116 75.7084 172.192 76.9348L173.518 75.7625Z" fill="#2F2E41"/>
<path d="M162.778 50.4307C156.259 50.4297 149.919 52.5473 144.724 56.4607C139.529 60.374 135.763 65.8685 134.001 72.1068C132.239 78.3451 132.577 84.9849 134.964 91.0143C137.351 97.0438 141.656 102.132 147.222 105.504L147.415 105.616C147.574 105.712 147.734 105.804 147.893 105.893C148.162 106.052 148.431 106.204 148.707 106.349C148.893 106.445 149.079 106.544 149.265 106.636C151.339 107.689 153.532 108.493 155.797 109.033C156.265 109.145 156.734 109.247 157.212 109.333C159.047 109.679 160.91 109.852 162.778 109.851C163.249 109.851 163.718 109.842 164.186 109.818C164.844 109.789 165.494 109.737 166.139 109.663C166.919 109.577 167.69 109.461 168.45 109.313C169.986 109.019 171.496 108.606 172.967 108.075C173.153 108.006 173.339 107.937 173.521 107.867C174.023 107.676 174.515 107.471 174.999 107.253C175.531 107.016 176.054 106.763 176.57 106.494C181.74 103.803 186.013 99.6779 188.871 94.6199C188.884 94.5936 188.901 94.5671 188.914 94.5407C190.439 91.821 191.521 88.8785 192.119 85.8224C192.959 81.5201 192.832 77.0864 191.746 72.8388C190.661 68.5911 188.644 64.6346 185.84 61.2525C183.036 57.8704 179.515 55.1464 175.528 53.2755C171.541 51.4046 167.187 50.4331 162.778 50.4307H162.778ZM188.37 94.1545C188.343 94.2007 188.32 94.2469 188.293 94.2898C185.492 99.2732 181.279 103.328 176.178 105.95C175.67 106.214 175.153 106.461 174.627 106.692C174.192 106.887 173.747 107.072 173.299 107.244C173.109 107.316 172.917 107.389 172.724 107.455C171.454 107.916 170.152 108.287 168.829 108.564C167.847 108.772 166.855 108.927 165.856 109.029C165.242 109.096 164.618 109.142 163.99 109.165C163.588 109.181 163.183 109.191 162.778 109.191C160.971 109.193 159.167 109.026 157.391 108.693C156.311 108.495 155.243 108.235 154.193 107.914C152.593 107.422 151.039 106.796 149.547 106.042C149.374 105.953 149.202 105.864 149.032 105.771C148.79 105.643 148.544 105.51 148.305 105.369C148.125 105.269 147.946 105.164 147.77 105.058C147.667 104.999 147.564 104.936 147.461 104.873C142.581 101.894 138.688 97.5562 136.265 92.3977C133.842 87.2393 132.997 81.4873 133.833 75.8553C134.669 70.2233 137.15 64.9593 140.968 60.7162C144.786 56.4732 149.774 53.4378 155.312 51.9867C160.85 50.5357 166.695 50.7327 172.121 52.5535C177.548 54.3742 182.317 57.7385 185.837 62.229C189.357 66.7195 191.474 72.1386 191.924 77.8139C192.374 83.4892 191.138 89.171 188.37 94.1545H188.37Z" fill="#3F3D56"/>
<path d="M156.058 63.2036C155.901 61.5636 153.88 60.554 152.299 61.0494C150.718 61.5447 149.681 63.1267 149.367 64.7444C149.216 65.4256 149.202 66.1298 149.325 66.8165C149.449 67.5032 149.707 68.159 150.086 68.7462C150.885 69.8891 152.353 70.6024 153.723 70.3122C155.286 69.981 156.369 68.4637 156.679 66.9051C156.989 65.3465 156.681 63.7395 156.374 62.1804L156.058 63.2036Z" fill="#2F2E41"/>
<path d="M178.3 65.5474C178.143 63.9074 176.122 62.8977 174.541 63.3931C172.961 63.8885 171.923 65.4705 171.609 67.0881C171.458 67.7694 171.444 68.4735 171.567 69.1602C171.691 69.847 171.949 70.5027 172.328 71.0899C173.127 72.2328 174.595 72.9461 175.965 72.656C177.528 72.3248 178.611 70.8075 178.921 69.2488C179.231 67.6902 178.923 66.0833 178.616 64.5241L178.3 65.5474Z" fill="#2F2E41"/>
<path d="M111.116 92.0152C110.909 92.015 110.705 91.972 110.516 91.8887C110.326 91.8055 110.157 91.6839 110.018 91.5318L93.5382 73.6616C93.3512 73.4592 93.124 73.2976 92.871 73.187C92.618 73.0764 92.3446 73.0191 92.0682 73.0187H4.98461C3.66306 73.0173 2.39607 72.4948 1.4616 71.5659C0.527121 70.637 0.00148376 69.3776 0 68.0639V36.8474C0.00148288 35.5337 0.527121 34.2743 1.4616 33.3454C2.39607 32.4165 3.66306 31.8941 4.98461 31.8926H117.808C119.13 31.8941 120.397 32.4165 121.331 33.3454C122.265 34.2743 122.791 35.5337 122.793 36.8474V68.064C122.791 69.3776 122.265 70.637 121.331 71.5659C120.397 72.4948 119.13 73.0173 117.808 73.0188H114.609C114.081 73.0194 113.574 73.2284 113.2 73.6C112.826 73.9717 112.616 74.4755 112.615 75.0011V90.5275C112.617 90.8272 112.526 91.1203 112.356 91.3677C112.186 91.6151 111.944 91.8051 111.662 91.9126C111.488 91.9802 111.303 92.0151 111.116 92.0152V92.0152Z" fill="#222227"/>
<path d="M111.116 92.0152C110.909 92.015 110.705 91.972 110.516 91.8887C110.326 91.8055 110.157 91.6839 110.018 91.5318L93.5382 73.6616C93.3512 73.4592 93.124 73.2976 92.871 73.187C92.618 73.0764 92.3446 73.0191 92.0682 73.0187H4.98461C3.66306 73.0173 2.39607 72.4948 1.4616 71.5659C0.527121 70.637 0.00148376 69.3776 0 68.0639V36.8474C0.00148288 35.5337 0.527121 34.2743 1.4616 33.3454C2.39607 32.4165 3.66306 31.8941 4.98461 31.8926H117.808C119.13 31.8941 120.397 32.4165 121.331 33.3454C122.265 34.2743 122.791 35.5337 122.793 36.8474V68.064C122.791 69.3776 122.265 70.637 121.331 71.5659C120.397 72.4948 119.13 73.0173 117.808 73.0188H114.609C114.081 73.0194 113.574 73.2284 113.2 73.6C112.826 73.9717 112.616 74.4755 112.615 75.0011V90.5275C112.617 90.8272 112.526 91.1203 112.356 91.3677C112.186 91.6151 111.944 91.8051 111.662 91.9126C111.488 91.9802 111.303 92.0151 111.116 92.0152V92.0152ZM4.98461 32.5528C3.83916 32.5541 2.741 33.007 1.93105 33.8121C1.12109 34.6172 0.665497 35.7088 0.664204 36.8474V68.064C0.665498 69.2026 1.1211 70.2941 1.93105 71.0993C2.741 71.9044 3.83916 72.3572 4.98461 72.3585H92.0682C92.4367 72.3589 92.8011 72.4353 93.1384 72.5828C93.4756 72.7303 93.7785 72.9457 94.0278 73.2154L110.507 91.0857C110.62 91.2083 110.768 91.2942 110.931 91.332C111.094 91.3697 111.265 91.3577 111.421 91.2973C111.577 91.237 111.711 91.1312 111.806 90.9938C111.9 90.8565 111.951 90.6939 111.951 90.5275V75.0011C111.952 74.3005 112.232 73.6288 112.73 73.1334C113.229 72.638 113.905 72.3593 114.609 72.3585H117.808C118.953 72.3572 120.052 71.9044 120.862 71.0993C121.671 70.2941 122.127 69.2026 122.128 68.064V36.8474C122.127 35.7088 121.671 34.6172 120.862 33.8121C120.052 33.007 118.953 32.5541 117.808 32.5528H4.98461Z" fill="#3F3D56"/>
<path d="M12.225 45.6635C14.6339 45.6635 16.5867 43.7223 16.5867 41.3278C16.5867 38.9333 14.6339 36.9922 12.225 36.9922C9.81609 36.9922 7.86328 38.9333 7.86328 41.3278C7.86328 43.7223 9.81609 45.6635 12.225 45.6635Z" fill="#5865F2"/>
<path d="M112.721 65.319H10.0751C9.76941 65.3194 9.46662 65.2598 9.18406 65.1438C8.9015 65.0277 8.64473 64.8575 8.42842 64.6427C8.21212 64.428 8.04051 64.1729 7.92343 63.8922C7.80636 63.6115 7.74609 63.3106 7.74609 63.0067C7.74609 62.7028 7.80636 62.4019 7.92343 62.1211C8.04051 61.8404 8.21212 61.5854 8.42842 61.3706C8.64473 61.1559 8.9015 60.9856 9.18406 60.8696C9.46662 60.7535 9.76941 60.694 10.0751 60.6943H112.721C113.338 60.6951 113.929 60.939 114.364 61.3726C114.8 61.8061 115.045 62.3939 115.045 63.0067C115.045 63.6195 114.8 64.2072 114.364 64.6408C113.929 65.0743 113.338 65.3183 112.721 65.319V65.319Z" fill="#494949"/>
<path d="M79.2812 55.4919H10.0751C9.76941 55.4922 9.46662 55.4327 9.18406 55.3166C8.9015 55.2006 8.64473 55.0303 8.42842 54.8156C8.21212 54.6008 8.04051 54.3458 7.92343 54.0651C7.80636 53.7843 7.74609 53.4834 7.74609 53.1795C7.74609 52.8756 7.80636 52.5747 7.92343 52.294C8.04051 52.0133 8.21212 51.7582 8.42842 51.5435C8.64473 51.3287 8.9015 51.1585 9.18406 51.0424C9.46662 50.9264 9.76941 50.8668 10.0751 50.8672H79.2812C79.8982 50.8672 80.4899 51.1108 80.9261 51.5445C81.3624 51.9781 81.6075 52.5663 81.6075 53.1795C81.6075 53.7928 81.3624 54.381 80.9261 54.8146C80.4899 55.2483 79.8982 55.4919 79.2812 55.4919Z" fill="#494949"/>
<path d="M184.338 197.88C184.056 197.773 183.814 197.583 183.644 197.335C183.474 197.088 183.383 196.795 183.384 196.495V180.969C183.384 180.443 183.173 179.939 182.8 179.568C182.426 179.196 181.919 178.987 181.39 178.986H178.192C176.87 178.985 175.603 178.463 174.669 177.534C173.734 176.605 173.209 175.345 173.207 174.032V142.815C173.209 141.502 173.734 140.242 174.669 139.313C175.603 138.384 176.87 137.862 178.192 137.86H291.015C292.337 137.862 293.604 138.384 294.538 139.313C295.472 140.242 295.998 141.502 296 142.815V174.032C295.998 175.345 295.472 176.605 294.538 177.534C293.604 178.463 292.337 178.985 291.015 178.986H203.931C203.655 178.987 203.382 179.044 203.129 179.155C202.876 179.265 202.648 179.427 202.461 179.629L185.982 197.5C185.843 197.652 185.673 197.773 185.484 197.856C185.295 197.94 185.09 197.983 184.884 197.983C184.697 197.983 184.512 197.948 184.338 197.88V197.88Z" fill="#222227"/>
<path d="M184.338 197.88C184.056 197.773 183.814 197.583 183.644 197.335C183.474 197.088 183.383 196.795 183.384 196.495V180.969C183.384 180.443 183.173 179.939 182.8 179.568C182.426 179.196 181.919 178.987 181.39 178.986H178.192C176.87 178.985 175.603 178.463 174.669 177.534C173.734 176.605 173.209 175.345 173.207 174.032V142.815C173.209 141.502 173.734 140.242 174.669 139.313C175.603 138.384 176.87 137.862 178.192 137.86H291.015C292.337 137.862 293.604 138.384 294.538 139.313C295.472 140.242 295.998 141.502 296 142.815V174.032C295.998 175.345 295.472 176.605 294.538 177.534C293.604 178.463 292.337 178.985 291.015 178.986H203.931C203.655 178.987 203.382 179.044 203.129 179.155C202.876 179.265 202.648 179.427 202.461 179.629L185.982 197.5C185.843 197.652 185.673 197.773 185.484 197.856C185.295 197.94 185.09 197.983 184.884 197.983C184.697 197.983 184.512 197.948 184.338 197.88V197.88ZM178.192 138.521C177.046 138.522 175.948 138.975 175.138 139.78C174.328 140.585 173.873 141.677 173.871 142.815V174.032C173.873 175.17 174.328 176.262 175.138 177.067C175.948 177.872 177.046 178.325 178.192 178.326H181.39C182.095 178.327 182.771 178.606 183.269 179.101C183.767 179.597 184.048 180.268 184.049 180.969V196.495C184.049 196.662 184.099 196.824 184.194 196.962C184.288 197.099 184.422 197.205 184.578 197.265C184.734 197.325 184.905 197.337 185.068 197.3C185.231 197.262 185.379 197.176 185.492 197.053L201.972 179.183C202.221 178.913 202.524 178.698 202.861 178.551C203.199 178.403 203.563 178.327 203.931 178.326H291.015C292.16 178.325 293.259 177.872 294.069 177.067C294.879 176.262 295.334 175.17 295.335 174.032V142.815C295.334 141.677 294.879 140.585 294.069 139.78C293.259 138.975 292.16 138.522 291.015 138.521H178.192Z" fill="#3F3D56"/>
<path d="M149.172 207.546C144.545 210.491 139.185 212.097 133.691 212.184C128.198 212.271 122.789 210.835 118.07 208.038C118.9 206.502 119.952 205.095 121.192 203.862C123.105 201.951 125.434 200.502 127.999 199.625C130.564 198.748 133.297 198.467 135.988 198.804C138.679 199.141 141.256 200.087 143.522 201.569C145.788 203.05 147.682 205.029 149.059 207.351C149.095 207.414 149.135 207.48 149.172 207.546Z" fill="#5865F2"/>
<path d="M132.322 191.761C140.429 191.761 147.001 185.228 147.001 177.17C147.001 169.111 140.429 162.578 132.322 162.578C124.215 162.578 117.643 169.111 117.643 177.17C117.643 185.228 124.215 191.761 132.322 191.761Z" fill="#2F2E41"/>
<path d="M143.246 187.46C146.14 182.197 144.194 175.599 138.9 172.722C133.605 169.845 126.967 171.779 124.073 177.042C121.178 182.305 123.124 188.904 128.419 191.78C133.713 194.657 140.352 192.723 143.246 187.46Z" fill="#E4D9D9"/>
<path d="M122.18 175.421C124.676 177.132 127.64 178.042 130.672 178.03C129.59 178.775 128.359 179.279 127.063 179.506C131.094 180.365 135.261 180.389 139.302 179.574C140.2 179.431 141.067 179.135 141.864 178.699C142.261 178.479 142.607 178.178 142.88 177.815C143.152 177.453 143.345 177.038 143.445 176.597C143.714 175.072 142.519 173.687 141.276 172.753C139.374 171.346 137.182 170.376 134.856 169.914C132.531 169.452 130.132 169.51 127.832 170.083C126.33 170.469 124.825 171.12 123.85 172.319C122.874 173.518 122.585 175.367 123.515 176.601L122.18 175.421Z" fill="#2F2E41"/>
<path d="M133.222 212.519C126.033 212.516 119.086 209.938 113.655 205.256C108.223 200.573 104.673 194.102 103.653 187.028C102.634 179.954 104.215 172.752 108.106 166.743C111.997 160.733 117.937 156.32 124.837 154.313C131.736 152.305 139.133 152.837 145.67 155.812C152.206 158.787 157.445 164.004 160.424 170.508C163.404 177.011 163.925 184.365 161.891 191.219C159.857 198.073 155.406 203.969 149.353 207.825C144.539 210.893 138.94 212.522 133.222 212.519V212.519ZM133.222 153.758C127.441 153.757 121.79 155.461 116.983 158.653C112.176 161.845 108.43 166.383 106.217 171.692C104.005 177 103.426 182.842 104.553 188.478C105.681 194.114 108.465 199.291 112.552 203.354C116.64 207.418 121.848 210.185 127.518 211.306C133.188 212.427 139.065 211.851 144.406 209.652C149.746 207.453 154.311 203.728 157.523 198.95C160.734 194.172 162.448 188.555 162.447 182.808C162.438 175.106 159.357 167.722 153.878 162.276C148.399 156.83 140.97 153.767 133.222 153.758V153.758Z" fill="#3F3D56"/>
<path d="M187.245 151.3C189.653 151.3 191.606 149.359 191.606 146.965C191.606 144.57 189.653 142.629 187.245 142.629C184.836 142.629 182.883 144.57 182.883 146.965C182.883 149.359 184.836 151.3 187.245 151.3Z" fill="#5865F2"/>
<path d="M287.735 170.956H185.089C184.783 170.956 184.48 170.897 184.198 170.781C183.915 170.664 183.658 170.494 183.442 170.279C183.226 170.065 183.054 169.81 182.937 169.529C182.82 169.248 182.76 168.947 182.76 168.643C182.76 168.34 182.82 168.039 182.937 167.758C183.054 167.477 183.226 167.222 183.442 167.007C183.658 166.793 183.915 166.622 184.198 166.506C184.48 166.39 184.783 166.331 185.089 166.331H287.735C288.352 166.331 288.943 166.575 289.38 167.008C289.816 167.442 290.061 168.03 290.061 168.643C290.061 169.257 289.816 169.845 289.38 170.278C288.943 170.712 288.352 170.956 287.735 170.956Z" fill="#494949"/>
<path d="M254.295 161.129H185.089C184.783 161.129 184.48 161.069 184.198 160.953C183.915 160.837 183.658 160.667 183.442 160.452C183.226 160.238 183.054 159.983 182.937 159.702C182.82 159.421 182.76 159.12 182.76 158.816C182.76 158.512 182.82 158.211 182.937 157.931C183.054 157.65 183.226 157.395 183.442 157.18C183.658 156.965 183.915 156.795 184.198 156.679C184.48 156.563 184.783 156.504 185.089 156.504H254.295C254.911 156.505 255.502 156.749 255.938 157.182C256.374 157.616 256.618 158.203 256.618 158.816C256.618 159.429 256.374 160.017 255.938 160.45C255.502 160.884 254.911 161.128 254.295 161.129V161.129Z" fill="#494949"/>
<path d="M184.2 200.835C188.695 200.835 192.338 200.433 192.338 199.937C192.338 199.441 188.695 199.039 184.2 199.039C179.706 199.039 176.062 199.441 176.062 199.937C176.062 200.433 179.706 200.835 184.2 200.835Z" fill="#BDBDBD"/>
<path d="M111.468 95.1989C115.962 95.1989 119.606 94.7969 119.606 94.3011C119.606 93.8053 115.962 93.4033 111.468 93.4033C106.974 93.4033 103.33 93.8053 103.33 94.3011C103.33 94.7969 106.974 95.1989 111.468 95.1989Z" fill="#BDBDBD"/>
</svg>
